<svg width="186" height="31" viewBox="0 0 186 31" fill="none" xmlns="http://www.w3.org/2000/svg">
<g clip-path="url(#clip0_266_3107)">
<path d="M44.8457 7.64322C44.8457 2.99667 47.114 0 51.6948 0C56.2757 0 58.5847 2.99667 58.5847 7.64322V23.3602C58.5847 27.962 56.3198 31 51.6948 31C47.0699 31 44.8457 27.962 44.8457 23.3602V7.64322ZM48.1429 23.5324C48.1429 26.3121 49.2975 27.9172 51.6948 27.9172C54.0922 27.9172 55.2468 26.3121 55.2468 23.5324V7.46756C55.2468 4.73267 54.1364 3.08278 51.6948 3.08278C49.2533 3.08278 48.1429 4.73267 48.1429 7.46756V23.5324Z" fill="#FAFAFA"/>
<path d="M73.0605 0.302734C77.7704 0.302734 79.7365 2.73451 79.7365 7.25018V9.72329C79.7365 13.0713 78.582 15.1517 76.0012 15.975C78.7382 16.8016 79.7671 19.075 79.7671 22.3162V27.0488C79.7671 28.3956 79.8078 29.6528 80.3647 30.6965H76.969C76.5853 29.8285 76.4155 29.0432 76.4155 27.0075V22.2301C76.4155 18.7856 74.8297 17.7144 72.0486 17.7144H69.692V30.6965H66.3574V0.302734H73.0605ZM72.2048 14.6316C74.8569 14.6316 76.4427 13.7636 76.4427 10.4638V7.55329C76.4427 4.8184 75.4545 3.38551 72.9757 3.38551H69.7192V14.6316H72.2048Z" fill="#FAFAFA"/>
<path d="M91.1328 24.5757L89.9783 30.6965H86.8848L92.6235 0.302734H97.459L103.201 30.6965H99.8632L98.7086 24.5757H91.1328ZM91.5607 21.6652H98.2366L94.8579 4.12607L91.5607 21.6652Z" fill="#FAFAFA"/>
<path d="M112.653 30.6965H109.654V0.302734H113.892L120.843 22.2714V0.302734H123.797V30.6965H120.313L112.653 6.1204V30.6965Z" fill="#FAFAFA"/>
<path d="M145.133 7.64322V10.2438H141.965V7.46756C141.965 4.73267 140.895 3.08278 138.453 3.08278C136.012 3.08278 134.942 4.73267 134.942 7.46756V23.5324C134.942 26.2673 136.056 27.9172 138.453 27.9172C140.851 27.9172 141.965 26.2673 141.965 23.5324V17.453H138.881V14.415H145.133V23.3706C145.133 27.9723 142.99 31.0103 138.369 31.0103C133.747 31.0103 131.648 27.9723 131.648 23.3706V7.64322C131.648 3.038 133.791 0 138.369 0C142.946 0 145.133 3.038 145.133 7.64322Z" fill="#FAFAFA"/>
<path d="M164.55 13.7636V16.8016H157.229V27.6137H166.217V30.7137H153.891V0.302734H166.217V3.40273H157.229V13.7636H164.55Z" fill="#FAFAFA"/>
<path d="M186.001 0V30.3938H182.646V0H186.001Z" fill="#FAFAFA"/>
<path d="M176.571 28.6292C176.571 29.0379 176.451 29.4375 176.228 29.7773C176.004 30.1172 175.686 30.3821 175.313 30.5385C174.941 30.6949 174.531 30.7359 174.136 30.6561C173.741 30.5764 173.378 30.3795 173.093 30.0905C172.808 29.8015 172.614 29.4332 172.535 29.0324C172.457 28.6315 172.497 28.2159 172.651 27.8383C172.805 27.4607 173.067 27.1379 173.402 26.9108C173.737 26.6837 174.131 26.5625 174.534 26.5625C175.074 26.5625 175.592 26.7802 175.974 27.1678C176.356 27.5554 176.571 28.0811 176.571 28.6292Z" fill="#FAFAFA"/>
<path d="M30.5637 1.72222C30.5637 2.06285 30.4641 2.39582 30.2775 2.67904C30.091 2.96226 29.8258 3.183 29.5156 3.31335C29.2053 3.4437 28.8639 3.4778 28.5346 3.41135C28.2052 3.3449 27.9027 3.18087 27.6653 2.94002C27.4278 2.69916 27.2661 2.39229 27.2006 2.05821C27.1351 1.72413 27.1687 1.37785 27.2972 1.06316C27.4257 0.748461 27.6433 0.479487 27.9225 0.290247C28.2018 0.101006 28.53 0 28.8658 0C29.3161 0 29.748 0.181448 30.0664 0.504427C30.3848 0.827406 30.5637 1.26546 30.5637 1.72222Z" fill="url(#paint0_linear_266_3107)"/>
<path d="M27.1657 6.88966V20.6674C27.1657 22.4945 26.4502 24.2467 25.1765 25.5386C23.9029 26.8305 22.1755 27.5563 20.3743 27.5563H17.7731C17.8886 27.4254 18.0007 27.2945 18.1127 27.1602C19.5821 25.3248 20.3832 23.0318 20.3811 20.6674V10.3341C20.3798 8.39881 19.8407 6.50307 18.8258 4.86432C18.6061 4.50583 18.3657 4.16078 18.1059 3.83099C17.3191 2.84603 16.3616 2.01494 15.2807 1.37855C13.7316 0.471325 11.9743 -0.00614986 10.1855 -0.00585924C8.39673 -0.00556863 6.63957 0.472477 5.09074 1.3802C3.5419 2.28793 2.25601 3.59332 1.36237 5.16511C0.468729 6.7369 -0.00114519 8.51966 2.09594e-06 10.3341V20.6674C2.09594e-06 23.408 1.07329 26.0363 2.98374 27.9742C4.8942 29.9121 7.48534 31.0008 10.1871 31.0008H20.3743C23.0761 31.0008 25.6672 29.9121 27.5776 27.9742C29.4881 26.0363 30.5614 23.408 30.5614 20.6674V6.88966H27.1657ZM5.24977 25.3967C4.0575 24.1193 3.39388 22.4265 3.39571 20.6674V10.3341C3.3966 9.05003 3.75129 7.79176 4.41974 6.7013C5.0882 5.61084 6.04381 4.7316 7.17874 4.16279C8.31368 3.59398 9.58275 3.35826 10.8427 3.48222C12.1027 3.60618 13.3035 4.08489 14.3095 4.86432C14.6613 5.14022 14.9864 5.44931 15.2807 5.78744C16.3753 7.04303 16.9792 8.66145 16.9785 10.3375V20.6709C16.9778 22.3478 16.3741 23.9668 15.2807 25.2244L15.1211 25.4001C14.4863 26.0813 13.7212 26.624 12.8725 26.9948C12.0239 27.3657 11.1095 27.557 10.1854 27.557C9.26135 27.557 8.34699 27.3657 7.49832 26.9948C6.64965 26.624 5.88452 26.0813 5.24977 25.4001V25.3967Z" fill="url(#paint1_linear_266_3107)"/>
</g>
<defs>
<linearGradient id="paint0_linear_266_3107" x1="27.168" y1="1.72222" x2="30.5637" y2="1.72222" gradientUnits="userSpaceOnUse">
<stop stop-color="#FCBD61"/>
<stop offset="0.07" stop-color="#FAB15D"/>
<stop offset="0.17" stop-color="#F9A658"/>
<stop offset="0.28" stop-color="#F8A257"/>
<stop offset="0.46" stop-color="#F6914F"/>
<stop offset="0.79" stop-color="#F37C47"/>
<stop offset="1" stop-color="#F1673F"/>
</linearGradient>
<linearGradient id="paint1_linear_266_3107" x1="2.09595e-06" y1="15.5008" x2="30.5614" y2="15.5008" gradientUnits="userSpaceOnUse">
<stop stop-color="#FCBD61"/>
<stop offset="0.07" stop-color="#FAB15D"/>
<stop offset="0.17" stop-color="#F9A658"/>
<stop offset="0.28" stop-color="#F8A257"/>
<stop offset="0.46" stop-color="#F6914F"/>
<stop offset="0.79" stop-color="#F37C47"/>
<stop offset="1" stop-color="#F1673F"/>
</linearGradient>
<clipPath id="clip0_266_3107">
<rect width="186" height="31" fill="white"/>
</clipPath>
</defs>
</svg>
